<?xml version="1.0"?>
<svg width="64" height="64" xmlns="http://www.w3.org/2000/svg" xmlns:svg="http://www.w3.org/2000/svg">
 <g class="layer">
  <title>Layer 1</title>
  <g id="svg_41" transform="translate(0 -0.119048) translate(0 0.119048) translate(0 0.119048) matrix(1.68654 0 0 1.68654 -21.8687 -21.9004)">
   <path clip-rule="evenodd" d="m27.63,24.09c1.78,-0.68 3.74,-0.83 5.59,-0.4c1.86,0.42 3.56,1.37 4.89,2.75c1.33,1.37 2.21,3.12 2.54,5c0.32,1.87 0.1,3.82 -0.68,5.55c-0.78,1.75 -2.03,3.23 -3.64,4.25c-1.6,1.03 -3.48,1.58 -5.39,1.53c-1.91,-0.03 -3.79,-0.63 -5.34,-1.7c-1.59,-1.08 -2.79,-2.6 -3.52,-4.38c-0.93,-2.4 -0.88,-5.08 0.15,-7.45c1.06,-2.35 2.99,-4.2 5.4,-5.15z" fill="#2A2941" fill-rule="evenodd" id="svg_1"/>
   <path clip-rule="evenodd" d="m27.3,23.29c-1.93,0.8 -3.59,2.15 -4.74,3.87c-1.15,1.73 -1.78,3.75 -1.81,5.83c0,2.07 0.61,4.13 1.76,5.85c1.15,1.73 2.78,3.1 4.72,3.9c1.93,0.8 4.04,1.03 6.09,0.65c2.06,-0.4 3.94,-1.37 5.42,-2.82c1.48,-1.45 2.51,-3.33 2.94,-5.36c0.42,-2.02 0.25,-4.15 -0.53,-6.07c-0.53,-1.3 -1.3,-2.48 -2.28,-3.45c-0.98,-1 -2.16,-1.78 -3.44,-2.33c-1.28,-0.55 -2.66,-0.83 -4.06,-0.83c-1.38,-0.05 -2.76,0.23 -4.07,0.76zm0.63,1.6c1.63,-0.63 3.41,-0.75 5.09,-0.38c1.71,0.38 3.24,1.25 4.44,2.53c1.21,1.25 2.01,2.85 2.31,4.55c0.3,1.7 0.1,3.47 -0.6,5.05c-0.7,1.6 -1.86,2.95 -3.31,3.88c-1.46,0.95 -3.19,1.42 -4.92,1.4c-1.73,-0.03 -3.44,-0.58 -4.87,-1.55c-1.43,-0.98 -2.53,-2.38 -3.18,-3.98c-0.43,-1.08 -0.63,-2.25 -0.61,-3.4c0.03,-1.18 0.28,-2.33 0.76,-3.38c0.47,-1.07 1.15,-2.02 1.98,-2.85c0.83,-0.82 1.83,-1.45 2.91,-1.87z" fill="#2A2941" fill-rule="evenodd" id="svg_2"/>
   <path d="m27.6,24.19c-2.28,5.52 1.58,15.15 7.7,17.5" id="svg_3" stroke="#2A2941" stroke-linecap="round" stroke-linejoin="round" stroke-width="2.03"/>
   <path d="m27.65,24.14c7.63,3.12 9.23,13.1 7.93,17.75" id="svg_4" stroke="#2A2941" stroke-linecap="round" stroke-linejoin="round" stroke-width="2.03"/>
   <path d="m27.7,41.74c1.58,-1.77 3.57,-3.15 5.77,-4.05c2.21,-0.87 4.59,-1.25 6.98,-1.07" id="svg_5" stroke="#2A2941" stroke-linecap="round" stroke-linejoin="round" stroke-width="2.03"/>
   <path d="m34.65,24.39c-2.31,3.1 -7.07,5.05 -11.74,4.8" id="svg_6" stroke="#2A2941" stroke-linecap="round" stroke-linejoin="round" stroke-width="2.03"/>
   <path d="m22.48,37.02c7.73,-3.46 11.04,-4.88 17.67,-7.76" id="svg_7" stroke="#2A2941" stroke-linecap="round" stroke-linejoin="round" stroke-width="2.03"/>
   <path clip-rule="evenodd" d="m21.88,47.09l-6.67,-15.95l9.43,-13.43l16.74,2.02l6.57,16.18l-10.86,11.58l-15.21,-0.35l0,-0.05zm0.93,-1.32l-6.02,-14.43l8.53,-12.11l15.15,1.75l5.95,14.66l-9.81,10.48l-13.8,-0.35z" fill="#2A2941" fill-rule="evenodd" id="svg_8"/>
   <path clip-rule="evenodd" d="m24.52,17.11l-1.08,2.45l2.36,1.02l1.05,-2.45l-2.33,-1.02z" fill="#2A2941" fill-rule="evenodd" id="svg_9"/>
   <path clip-rule="evenodd" d="m27.78,17.76l-3.69,-1.58l-1.63,3.73l3.69,1.57l1.63,-3.72zm-3.29,-0.68l-1.08,2.45l2.36,1.03l1.05,-2.45l-2.33,-1.03z" fill="#2A2941" fill-rule="evenodd" id="svg_10"/>
   <path clip-rule="evenodd" d="m35.93,45.17l-0.98,2.45l2.46,0.92l0.98,-2.45l-2.46,-0.92z" fill="#2A2941" fill-rule="evenodd" id="svg_11"/>
   <path clip-rule="evenodd" d="m39.24,45.69l-3.68,-1.42l-1.46,3.77l3.69,1.43l1.45,-3.78zm-3.31,-0.52l-0.98,2.45l2.46,0.92l0.98,-2.45l-2.46,-0.92z" fill="#2A2941" fill-rule="evenodd" id="svg_12"/>
   <path clip-rule="evenodd" d="m46.42,33.89l-0.98,2.45l2.31,0.93l0.95,-2.46l-2.28,-0.92z" fill="#2A2941" fill-rule="evenodd" id="svg_13"/>
   <path clip-rule="evenodd" d="m49.63,34.39l-3.61,-1.43l-1.48,3.68l3.61,1.43l1.48,-3.68zm-3.21,-0.53l-0.98,2.46l2.31,0.92l0.95,-2.45l-2.28,-0.93z" fill="#2A2941" fill-rule="evenodd" id="svg_14"/>
   <path clip-rule="evenodd" d="m40.3,18.81l-0.96,2.45l2.36,0.95l0.98,-2.45l-2.38,-0.95z" fill="#2A2941" fill-rule="evenodd" id="svg_15"/>
   <path clip-rule="evenodd" d="m43.51,19.31l-3.69,-1.43l-1.48,3.68l3.61,1.42l1.48,-3.67l0.08,0zm-3.21,-0.53l-0.96,2.45l2.36,0.95l0.98,-2.45l-2.38,-0.95z" fill="#2A2941" fill-rule="evenodd" id="svg_16"/>
   <path clip-rule="evenodd" d="m21.61,44.72l-1.01,2.45l2.39,0.97l1,-2.45l-2.38,-0.97z" fill="#2A2941" fill-rule="evenodd" id="svg_17"/>
   <path clip-rule="evenodd" d="m24.92,45.29l-3.69,-1.52l-1.53,3.67l3.69,1.51l1.53,-3.66zm-3.31,-0.57l-1.01,2.45l2.39,0.97l1,-2.45l-2.38,-0.97z" fill="#2A2941" fill-rule="evenodd" id="svg_18"/>
   <path clip-rule="evenodd" d="m15.21,29.74l-1,2.45l2.45,0.97l1.01,-2.45l-2.46,-0.97z" fill="#2A2941" fill-rule="evenodd" id="svg_19"/>
   <path clip-rule="evenodd" d="m18.52,30.36l-3.69,-1.52l-1.53,3.67l3.69,1.5l1.53,-3.65zm-3.31,-0.6l-1,2.45l2.45,0.98l1.01,-2.45l-2.46,-0.98z" fill="#2A2941" fill-rule="evenodd" id="svg_20"/>
   <path clip-rule="evenodd" d="m28.51,22.28c1.8,-0.7 3.78,-0.85 5.67,-0.45c1.88,0.43 3.61,1.38 4.96,2.78c1.36,1.4 2.24,3.15 2.59,5.05c0.35,1.9 0.1,3.85 -0.68,5.63c-0.78,1.78 -2.06,3.28 -3.69,4.3c-1.63,1.05 -3.54,1.58 -5.47,1.55c-1.93,-0.02 -3.81,-0.65 -5.42,-1.75c-1.58,-1.1 -2.81,-2.65 -3.53,-4.45c-0.48,-1.2 -0.71,-2.48 -0.68,-3.75c0.02,-1.28 0.3,-2.55 0.83,-3.73c0.52,-1.17 1.25,-2.25 2.18,-3.12c0.95,-0.9 2.03,-1.6 3.24,-2.06z" fill="#32EDBB" fill-rule="evenodd" id="svg_21"/>
   <path clip-rule="evenodd" d="m28.2,21.46c-1.93,0.8 -3.58,2.15 -4.76,3.88c-1.18,1.72 -1.81,3.77 -1.81,5.85c0,2.1 0.6,4.12 1.76,5.88c1.15,1.75 2.81,3.1 4.74,3.92c1.93,0.83 4.06,1.05 6.12,0.65c2.06,-0.4 3.96,-1.37 5.44,-2.85c1.51,-1.45 2.54,-3.33 2.97,-5.38c0.42,-2.05 0.25,-4.17 -0.53,-6.1c-0.53,-1.3 -1.31,-2.47 -2.28,-3.47c-0.98,-1 -2.16,-1.81 -3.47,-2.33c-1.3,-0.55 -2.68,-0.83 -4.09,-0.85c-1.4,0.02 -2.78,0.27 -4.09,0.8zm0.66,1.63c1.63,-0.63 3.41,-0.76 5.14,-0.38c1.71,0.38 3.26,1.25 4.47,2.53c1.2,1.27 2,2.85 2.33,4.57c0.3,1.73 0.1,3.5 -0.6,5.1c-0.71,1.61 -1.86,2.96 -3.34,3.91c-1.48,0.95 -3.19,1.42 -4.94,1.4c-1.76,-0.03 -3.46,-0.58 -4.89,-1.58c-1.43,-1 -2.56,-2.4 -3.22,-4c-0.85,-2.2 -0.8,-4.65 0.15,-6.83c0.91,-2.17 2.69,-3.87 4.9,-4.72z" fill="#2A2941" fill-rule="evenodd" id="svg_22"/>
   <path clip-rule="evenodd" d="m27.95,22.18c-1.23,2.91 -0.8,6.88 0.71,10.43c1.5,3.56 4.14,6.66 7.35,7.91c0.15,0.05 0.3,0.05 0.45,0c0.15,-0.05 0.25,-0.18 0.3,-0.33c0.05,-0.15 0.05,-0.3 0,-0.45c-0.05,-0.15 -0.18,-0.25 -0.33,-0.3c-2.96,-1.12 -5.34,-4 -6.72,-7.28c-1.38,-3.25 -1.78,-6.9 -0.7,-9.55c0.05,-0.15 0.05,-0.3 0,-0.43c-0.05,-0.15 -0.18,-0.25 -0.3,-0.3c-0.15,-0.05 -0.3,-0.05 -0.46,0c-0.15,0.05 -0.25,0.15 -0.3,0.3z" fill="#2A2941" fill-rule="evenodd" id="svg_23"/>
   <path clip-rule="evenodd" d="m28.33,22.89c1.68,0.75 3.19,1.85 4.39,3.22c1.2,1.38 2.11,3 2.63,4.78c1.06,2.92 1.26,6.1 0.58,9.15c-0.02,0.08 -0.02,0.15 -0.02,0.23c0,0.07 0.02,0.15 0.07,0.22c0.05,0.08 0.1,0.13 0.15,0.18c0.05,0.05 0.13,0.07 0.2,0.1c0.15,0.02 0.3,0.02 0.43,-0.05c0.12,-0.08 0.23,-0.2 0.28,-0.35c0.72,-3.28 0.52,-6.68 -0.61,-9.83c-0.57,-1.93 -1.55,-3.68 -2.86,-5.18c-1.33,-1.5 -2.96,-2.7 -4.79,-3.5c-0.07,-0.03 -0.15,-0.05 -0.22,-0.05c-0.08,0 -0.15,0.02 -0.23,0.05c-0.08,0.02 -0.13,0.07 -0.18,0.12c-0.05,0.05 -0.1,0.13 -0.12,0.18c-0.03,0.07 -0.05,0.15 -0.05,0.22c0,0.08 0.02,0.15 0.05,0.23c0.02,0.07 0.07,0.12 0.12,0.17c0.03,0.03 0.1,0.08 0.18,0.11z" fill="#2A2941" fill-rule="evenodd" id="svg_24"/>
   <path clip-rule="evenodd" d="m29.03,40.39c1.53,-1.7 3.41,-3.05 5.55,-3.9c2.13,-0.85 4.41,-1.23 6.7,-1.05c0.15,0 0.27,-0.05 0.37,-0.15c0.1,-0.1 0.18,-0.23 0.18,-0.38c0,-0.15 -0.03,-0.27 -0.1,-0.4c-0.08,-0.12 -0.2,-0.2 -0.35,-0.22c-2.46,-0.18 -4.95,0.22 -7.23,1.15c-2.28,0.93 -4.34,2.38 -5.97,4.2c-0.05,0.05 -0.1,0.13 -0.13,0.2c-0.02,0.08 -0.02,0.15 -0.02,0.23c0,0.07 0.02,0.15 0.05,0.22c0.02,0.08 0.07,0.13 0.15,0.18c0.1,0.1 0.25,0.17 0.4,0.17c0.15,0 0.3,-0.05 0.4,-0.17l0,-0.08z" fill="#2A2941" fill-rule="evenodd" id="svg_25"/>
   <path clip-rule="evenodd" d="m35.13,22.23c-2.21,2.98 -6.83,4.88 -11.29,4.61c-0.15,0 -0.3,0.05 -0.4,0.15c-0.1,0.1 -0.18,0.25 -0.2,0.4c0,0.15 0.05,0.3 0.15,0.4c0.1,0.1 0.25,0.17 0.4,0.2c4.89,0.25 9.86,-1.8 12.27,-5.06c0.07,-0.12 0.1,-0.27 0.07,-0.4c-0.02,-0.15 -0.1,-0.27 -0.22,-0.35c-0.13,-0.07 -0.25,-0.12 -0.4,-0.1c-0.18,-0.02 -0.31,0.05 -0.38,0.15z" fill="#2A2941" fill-rule="evenodd" id="svg_26"/>
   <path clip-rule="evenodd" d="m23.59,35.79c7.75,-3.48 11.04,-4.88 17.74,-7.78c0.12,-0.07 0.22,-0.17 0.27,-0.32c0.05,-0.13 0.05,-0.28 -0.02,-0.43c-0.05,-0.12 -0.15,-0.22 -0.3,-0.3c-0.13,-0.05 -0.28,-0.07 -0.43,-0.02c-6.67,2.87 -10.01,4.3 -17.76,7.77c-0.08,0.03 -0.13,0.08 -0.18,0.13c-0.05,0.05 -0.1,0.12 -0.12,0.17c-0.03,0.08 -0.05,0.15 -0.05,0.23c0,0.07 0.02,0.15 0.05,0.22c0.02,0.08 0.07,0.13 0.12,0.18c0.05,0.05 0.13,0.1 0.2,0.13c0.08,0.02 0.15,0.05 0.23,0.05c0.1,0 0.17,0 0.25,-0.03z" fill="#2A2941" fill-rule="evenodd" id="svg_27"/>
   <path clip-rule="evenodd" d="m22.86,45.49l-6.67,-15.95l9.43,-13.43l16.73,1.87l6.58,16.18l-10.92,11.66l-15.2,-0.33l0.05,0zm0.9,-1.35l-6.02,-14.43l8.53,-12.1l15.13,1.72l5.95,14.66l-9.81,10.5l-13.78,-0.35z" fill="#2A2941" fill-rule="evenodd" id="svg_28"/>
   <path clip-rule="evenodd" d="m25.44,15.48l-1.07,2.45l2.35,1.03l1.08,-2.45l-2.36,-1.03z" fill="#A694FE" fill-rule="evenodd" id="svg_29"/>
   <path clip-rule="evenodd" d="m28.73,16.13l-3.69,-1.57l-1.63,3.72l3.69,1.58l1.63,-3.73zm-3.26,-0.65l-1.08,2.45l2.36,1.03l1.08,-2.45l-2.36,-1.03z" fill="#2A2941" fill-rule="evenodd" id="svg_30"/>
   <path clip-rule="evenodd" d="m36.88,43.54l-0.95,2.45l2.46,0.93l0.95,-2.45l-2.46,-0.93z" fill="#A694FE" fill-rule="evenodd" id="svg_31"/>
   <path clip-rule="evenodd" d="m40.2,44.07l-3.69,-1.43l-1.46,3.8l3.69,1.43l1.46,-3.8zm-3.32,-0.53l-0.95,2.45l2.46,0.93l0.95,-2.45l-2.46,-0.93z" fill="#2A2941" fill-rule="evenodd" id="svg_32"/>
   <path clip-rule="evenodd" d="m47.37,32.29l-0.98,2.45l2.31,0.92l0.95,-2.45l-2.28,-0.92z" fill="#A694FE" fill-rule="evenodd" id="svg_33"/>
   <path clip-rule="evenodd" d="m50.58,32.79l-3.61,-1.43l-1.48,3.68l3.61,1.43l1.48,-3.68zm-3.21,-0.53l-0.98,2.45l2.31,0.93l0.95,-2.45l-2.28,-0.93z" fill="#2A2941" fill-rule="evenodd" id="svg_34"/>
   <path clip-rule="evenodd" d="m41.25,17.16l-0.95,2.45l2.3,0.92l0.98,-2.45l-2.33,-0.92z" fill="#A694FE" fill-rule="evenodd" id="svg_35"/>
   <path clip-rule="evenodd" d="m44.46,17.68l-3.61,-1.42l-1.48,3.67l3.61,1.43l1.48,-3.68zm-3.21,-0.52l-0.95,2.45l2.3,0.92l0.98,-2.45l-2.33,-0.92z" fill="#2A2941" fill-rule="evenodd" id="svg_36"/>
   <path clip-rule="evenodd" d="m22.56,43.09l-1,2.45l2.45,0.98l0.98,-2.45l-2.43,-0.98z" fill="#A694FE" fill-rule="evenodd" id="svg_37"/>
   <path clip-rule="evenodd" d="m25.87,43.67l-3.69,-1.5l-1.53,3.67l3.69,1.53l1.53,-3.7zm-3.31,-0.6l-1,2.45l2.45,0.97l0.98,-2.45l-2.43,-0.97z" fill="#2A2941" fill-rule="evenodd" id="svg_38"/>
   <path clip-rule="evenodd" d="m16.19,28.11l-1.01,2.45l2.46,1l1.01,-2.45l-2.46,-1z" fill="#A694FE" fill-rule="evenodd" id="svg_39"/>
   <path clip-rule="evenodd" d="m19.5,28.74l-3.69,-1.53l-1.53,3.68l3.69,1.5l1.53,-3.65zm-3.31,-0.63l-1.01,2.45l2.46,0.98l1.01,-2.45l-2.46,-0.98z" fill="#2A2941" fill-rule="evenodd" id="svg_40"/>
  </g>
 </g>
</svg>